<svg fill="#ffffff" height="200px" width="200px" version="1.1" id="Layer_1"
    xmlns="http://www.w3.org/2000/svg" xmlns:xlink="http://www.w3.org/1999/xlink"
    viewBox="0 0 512 512" xml:space="preserve"><g id="SVGRepo_bgCarrier" stroke-width="0"></g><g id="SVGRepo_tracerCarrier" stroke-linecap="round" stroke-linejoin="round"></g><g id="SVGRepo_iconCarrier"> <g> <g> <path d="M490.667,149.333v-42.667c0-4.203-1.259-8.341-3.584-11.84L448,36.203V21.333C448,9.557,438.464,0,426.667,0H85.333 C73.536,0,64,9.557,64,21.333v14.869L24.917,94.827c-2.325,3.499-3.584,7.637-3.584,11.84v42.667 c0,18.837,8.341,35.627,21.333,47.36v101.973c-11.797,0-21.333,9.557-21.333,21.333v106.667V448v42.667 c0,11.776,9.536,21.333,21.333,21.333C54.464,512,64,502.443,64,490.667v-21.333h384v21.333c0,11.776,9.536,21.333,21.333,21.333 s21.333-9.557,21.333-21.333V448v-21.333V320c0-11.776-9.536-21.333-21.333-21.333V196.693 C482.325,184.96,490.667,168.171,490.667,149.333z M149.333,405.333C137.557,405.333,128,395.776,128,384 s9.557-21.333,21.333-21.333s21.333,9.557,21.333,21.333S161.109,405.333,149.333,405.333z M256,405.333 c-11.776,0-21.333-9.557-21.333-21.333s9.557-21.333,21.333-21.333s21.333,9.557,21.333,21.333S267.776,405.333,256,405.333z M362.667,405.333c-11.776,0-21.333-9.557-21.333-21.333s9.557-21.333,21.333-21.333S384,372.224,384,384 S374.443,405.333,362.667,405.333z M426.667,298.667H85.333v-85.333c16.384,0,31.339-6.187,42.667-16.341 c11.328,10.155,26.283,16.341,42.667,16.341c16.384,0,31.339-6.187,42.667-16.341c11.328,10.155,26.283,16.341,42.667,16.341 c16.384,0,31.339-6.187,42.667-16.341c11.328,10.155,26.283,16.341,42.667,16.341s31.339-6.187,42.667-16.341 c11.328,10.155,26.283,16.341,42.667,16.341V298.667z"></path> </g> </g> </g></svg>